<svg xmlns="http://www.w3.org/2000/svg" width="24" height="24" viewBox="0 0 24 24"><title>sun with cloud</title><g><path fill="#FFC44D" d="M12 6.25c-3.18 0-5.75 2.57-5.75 5.75 0 .39.03.77.11 1.14.04.21.17.39.37.5l5.4 3c.11.06.23.09.36.09h2.5c.16 0 .32-.06.45-.16a5.753 5.753 0 0 0 2.29-4.6 5.75 5.75 0 0 0-5.75-5.75z"></path><path fill="#4DC4FF" d="M4.5 12.25c-1.8 0-3.25 1.45-3.25 3.25 0 1.74 1.36 3.16 3.08 3.24a3.25 3.25 0 0 0 3.16 4h6c.92 0 1.75-.39 2.34-1h3.65c1.79 0 3.25-1.46 3.25-3.25 0-1.8-1.46-3.25-3.25-3.25h-5.76c-.13-1.68-1.53-3-3.25-3h-6z"></path><g fill="#FFC44D" fill-rule="evenodd"><path d="M12 1.25c.41 0 .75.33.75.75v2a.749.749 0 1 1-1.5 0V2c0-.42.33-.75.75-.75z"></path><path d="M6.62 2.69c.35-.21.81-.09 1.02.27l1 1.73c.2.35.08.81-.28 1.02-.36.2-.82.08-1.03-.28l-1-1.74a.752.752 0 0 1 .27-1.03z"></path><path d="M17.375 2.69a.752.752 0 0 0-1.03.27l-1 1.73c-.21.35-.09.81.27 1.02.35.2.81.08 1.02-.28l1-1.74c.2-.36.08-.82-.28-1.03z"></path><path d="M2.69 6.62a.74.74 0 0 1 1.02-.28l1.73 1c.35.2.48.66.27 1.02a.76.76 0 0 1-1.03.27l-1.74-1a.755.755 0 0 1-.28-1.03z"></path><path d="M21.3 6.62a.755.755 0 0 0-1.03-.28l-1.74 1a.74.74 0 0 0-.28 1.02c.2.35.66.48 1.02.27l1.73-1a.76.76 0 0 0 .27-1.03z"></path><path d="M19.25 12c0-.42.33-.75.75-.75h2a.749.749 0 1 1 0 1.5h-2c-.42 0-.75-.34-.75-.75z"></path></g></g></svg>